<?xml version="1.0" encoding="UTF-8"?>
<svg width="80px" height="80px" viewBox="0 0 80 80" version="1.1" xmlns="http://www.w3.org/2000/svg" xmlns:xlink="http://www.w3.org/1999/xlink">
    <!-- Generator: Sketch 49 (51002) - http://www.bohemiancoding.com/sketch -->
    <title>streamroot</title>
    <desc>Created with Sketch.</desc>
    <defs></defs>
    <g id="streamroot" stroke="none" stroke-width="1" fill="none" fill-rule="evenodd">
        <g id="logo-(1)" transform="translate(3.000000, 3.000000)" fill-rule="nonzero">
            <path d="M27.9550468,62.0183203 C26.7609912,62.1987957 25.5384321,62.2923588 24.2940199,62.2923588 C10.8768032,62.2923588 0,51.4155556 0,37.9983389 C0,24.5811222 10.8768032,13.7043189 24.2940199,13.7043189 C25.3772414,13.7043189 26.4439049,13.7752132 27.4896232,13.9126149 C31.3824735,5.6885489 39.7569872,0 49.4601329,0 C62.8773496,0 73.7541528,10.8768032 73.7541528,24.2940199 C73.7541528,29.1634535 72.3215252,33.6982789 69.854768,37.4999985 C72.321525,41.3017199 73.7541528,45.8365458 73.7541528,50.7059801 C73.7541528,64.1231968 62.8773496,75 49.4601329,75 C40.1275398,75 32.0240382,69.7376337 27.9550468,62.0183203 Z" id="Combined-Shape" fill="#12A5ED"></path>
            <path d="M46.3079898,44.6844329 L49.8759508,50.3943643 L55.2979595,47.0063175 C54.9983738,46.0549577 55.3644162,44.9853977 56.2495645,44.4322958 C57.2998824,43.7759843 58.683379,44.0953896 59.3396905,45.1457078 C59.9960021,46.1960257 59.6765968,47.5795223 58.6262786,48.2358339 C58.1911184,48.5077522 57.6987665,48.6121836 57.2246345,48.5665385 L57.6954735,62.0495985 C58.4680154,62.0246619 59.2326065,62.4001993 59.6717026,63.1029 C60.3280141,64.1532179 60.0086088,65.5367145 58.9582909,66.1930261 C57.9079727,66.8493376 56.5244761,66.5299323 55.8681645,65.4796144 C55.4546245,64.8178116 55.4284659,64.0237298 55.7284483,63.362632 L43.5451428,56.8846535 C43.3885086,57.3702932 43.0661532,57.8053859 42.599541,58.0969575 C41.5492231,58.753269 40.1657265,58.4338637 39.509415,57.3835458 C38.8531034,56.3332276 39.1725087,54.949731 40.2228267,54.2934194 C41.1473068,53.7157403 42.329912,53.8939836 43.0475649,54.6612135 L48.8194126,51.0545626 L45.239106,45.3248746 C43.9639657,45.9774045 42.5191572,46.345515 40.9883721,46.345515 C39.6927543,46.345515 38.458726,46.0818189 37.3370295,45.605169 L33.5997017,52.3474866 C34.3632919,53.0298461 34.5823502,54.1724138 34.0649439,55.1058396 C33.4645012,56.1890669 32.099617,56.580441 31.0163898,55.9799983 C29.9331625,55.3795557 29.5417884,54.0146716 30.1422309,52.9314444 C30.6156037,52.0774572 31.5641008,51.653479 32.475136,51.8064912 L36.2248652,45.0418004 C33.7266458,43.558498 31.978879,40.9439621 31.6875439,37.9041715 L25.7197824,37.9041715 L25.7197824,44.5101807 C26.5907733,44.8180321 27.214799,45.6486924 27.214799,46.6251017 C27.214799,47.8636141 26.2107865,48.8676267 24.9722741,48.8676267 C23.7337617,48.8676267 22.7297491,47.8636141 22.7297491,46.6251017 C22.7297491,46.0288854 22.9624223,45.4870129 23.3419213,45.0853313 L11.6670561,38.3448446 C11.2692331,38.9707924 10.5696478,39.3861424 9.77305233,39.3861424 C8.53454003,39.3861424 7.53052742,38.3821298 7.53052742,37.1436174 C7.53052742,35.9051051 8.53454003,34.9010925 9.77305233,34.9010925 C10.5777415,34.9010925 11.2834392,35.3249257 11.6790885,35.961535 L23.3472989,29.2248904 C22.9646663,28.822653 22.729825,28.2785153 22.729825,27.6795274 C22.729825,26.4410153 23.7338376,25.4370025 24.9723498,25.4370025 C26.2108622,25.4370025 27.2148748,26.4410153 27.2148748,27.6795274 C27.2148748,28.6559654 26.590813,29.4866457 25.7197824,29.7944753 L25.7197824,36.6583243 L31.6507091,36.6583243 C31.7558803,33.7466385 33.1933066,31.1746627 35.3716841,29.5336986 L32.0209258,24.1713642 C31.0539249,24.5084008 29.948411,24.1460657 29.3828619,23.2409981 C28.7265503,22.1906801 29.0459559,20.8071835 30.0962738,20.1508719 C31.1465918,19.4945604 32.5300884,19.8139657 33.1863999,20.8642838 C33.7038182,21.6923259 33.6147974,22.7274491 33.0392913,23.4500766 L36.414674,28.8518178 C37.7666033,28.091484 39.3268423,27.6578073 40.9883721,27.6578073 C42.5366514,27.6578073 43.9969777,28.0343796 45.2827572,28.7009307 L47.7577667,24.2358954 L42.2078195,21.1595093 C41.5292798,21.9503601 40.3669171,22.1835372 39.4198527,21.6585708 C38.3366255,21.0581281 37.9452513,19.6932439 38.5456939,18.6100167 C39.1461366,17.5267894 40.5110208,17.1354151 41.594248,17.7358578 C42.0195757,17.9716209 42.3382385,18.3252401 42.5320777,18.7333892 L54.2769202,11.6763759 C53.8943564,11.0165269 53.858167,10.1779917 54.2548368,9.46238028 C54.8552796,8.37915301 56.2201637,7.98777877 57.3033909,8.58822145 C58.3866182,9.18866412 58.7779926,10.5535483 58.1775498,11.6367756 C57.7763352,12.3605861 57.0338058,12.775492 56.2620581,12.792001 L56.5001419,26.4318214 C57.079111,26.233785 57.7364474,26.2720697 58.3137767,26.5920885 C59.397004,27.1925312 59.7883782,28.5574154 59.1879354,29.6406426 C58.5874929,30.7238701 57.2226087,31.1152443 56.1393812,30.5148015 C55.3074052,30.0536297 54.8835573,29.1415096 55.0037442,28.2524063 L48.8474093,24.8398941 L46.3488573,29.3474011 C48.670186,30.9761018 50.2167937,33.6339571 50.326035,36.6583221 L57.4198694,36.6583243 C57.6464788,35.659659 58.5395893,34.9141383 59.6068256,34.9141383 C60.845338,34.9141383 61.8493505,35.9181511 61.8493505,37.1566632 C61.8493505,38.3951756 60.845338,39.3991881 59.6068256,39.3991881 C58.630416,39.3991881 57.7997556,38.7751625 57.4919046,37.9041715 L50.2892003,37.9041715 C50.0199999,40.7130102 48.5072689,43.158758 46.3079898,44.6844329 Z M55.9603904,48.0614606 L43.8440624,55.6325826 L56.4590103,62.3400695 L55.9603904,48.0614606 Z M42.7675687,20.0453389 L55.2635332,26.9719652 L55.0141854,12.6868292 L42.7675687,20.0453389 Z M24.4739352,44.3003193 L24.4739352,30.0130071 L12.1007599,37.1566632 L24.4739352,44.3003193 Z M38.155265,40.9884436 C38.1808146,40.9884436 38.1990643,40.9811437 38.2246139,40.9701939 L45.3858017,37.3895998 C45.440551,37.3640502 45.4734005,37.312951 45.4734005,37.2509021 C45.4734005,37.1888529 45.440551,37.1377537 45.3858017,37.1122042 L38.2246139,33.5316102 C38.1698649,33.5060606 38.1187654,33.5060606 38.0676663,33.5389101 C38.023867,33.5644597 37.9983174,33.6155589 37.9983174,33.6703081 L37.9983174,40.831496 C37.9983174,40.8862453 38.023867,40.9373444 38.0676663,40.962894 C38.0932159,40.9811437 38.1297154,40.9884436 38.155265,40.9884436 Z" id="Combined-Shape" fill="#FFFFFF"></path>
        </g>
    </g>
</svg>